<?xml version="1.0" standalone="no"?>
<!DOCTYPE svg PUBLIC "-//W3C//DTD SVG 20010904//EN"
 "http://www.w3.org/TR/2001/REC-SVG-20010904/DTD/svg10.dtd">
<svg version="1.0" xmlns="http://www.w3.org/2000/svg"
 width="200.000000pt" height="200.000000pt" viewBox="0 0 200.000000 200.000000"
 preserveAspectRatio="xMidYMid meet">
<metadata>
Created by potrace 1.16, written by Peter Selinger 2001-2019
</metadata>
<g transform="translate(0.000000,200.000000) scale(0.100000,-0.100000)"
fill="#000000" stroke="none">
<path d="M1105 1565 c-269 -157 -494 -291 -500 -300 -16 -24 7 -37 162 -90
l147 -50 53 -159 c49 -150 62 -175 88 -176 6 0 46 47 89 105 43 58 82 105 87
105 6 0 52 -18 104 -40 85 -36 145 -50 145 -34 0 12 151 859 156 875 4 16 -19
50 -34 48 -4 0 -227 -128 -497 -284z m76 -139 l-243 -243 -109 36 c-60 19
-108 39 -107 43 3 7 687 407 698 408 3 0 -105 -110 -239 -244z m304 -107 c-30
-173 -56 -317 -58 -321 -3 -11 -272 109 -270 120 5 20 377 535 380 525 2 -5
-21 -151 -52 -324z m-272 -6 c-70 -98 -132 -181 -138 -185 -7 -4 -18 -42 -25
-84 -10 -56 -16 -72 -22 -59 -6 9 -7 23 -4 31 3 8 2 13 -2 10 -5 -3 -17 20
-26 51 l-18 56 178 178 c99 99 180 179 181 179 2 0 -54 -80 -124 -177z"/>
<path d="M193 550 c-53 -32 -70 -92 -37 -138 9 -13 11 -22 4 -22 -6 0 -22 -11
-35 -25 -27 -26 -34 -80 -15 -114 23 -43 171 -67 260 -41 32 9 36 8 57 -19 13
-16 36 -32 53 -36 56 -12 75 13 94 126 6 33 10 37 45 43 70 11 121 71 121 142
0 28 -8 44 -35 71 -35 35 -37 35 -105 31 -59 -3 -74 -8 -107 -34 -56 -45 -85
-104 -91 -184 l-5 -68 -43 -11 c-96 -24 -184 -6 -184 38 0 26 21 40 77 54 38
9 49 17 51 35 3 18 -1 22 -21 22 -14 0 -35 9 -48 19 -20 16 -22 23 -13 38 18
30 62 47 90 34 19 -8 24 -18 24 -46 0 -31 3 -35 25 -35 51 0 59 92 10 124 -35
23 -131 21 -172 -4z m460 -62 c29 -34 4 -99 -42 -111 -16 -4 -18 2 -17 52 1
50 -1 56 -21 59 -26 4 -38 -16 -48 -75 -5 -32 -11 -43 -25 -43 -19 0 -30 -17
-23 -37 3 -7 11 -13 19 -13 10 0 13 -8 9 -27 -4 -16 -8 -39 -11 -52 -5 -22 -6
-23 -21 -8 -35 35 -13 186 35 241 43 48 111 54 145 14z"/>
<path d="M859 547 c-55 -29 -95 -92 -110 -172 -19 -101 2 -185 52 -211 61 -31
97 -4 113 86 11 60 14 65 41 71 66 13 125 62 125 103 0 16 64 86 80 86 14 0
13 -27 -7 -161 -9 -63 -14 -123 -10 -132 9 -23 54 -22 61 1 2 9 8 37 11 62 18
116 73 230 110 230 23 0 24 -27 3 -153 -11 -69 -18 -133 -14 -142 4 -11 15
-15 33 -13 26 3 28 8 44 91 22 109 44 169 75 198 19 18 27 20 36 11 10 -10 9
-31 -5 -96 -23 -112 -22 -161 3 -186 23 -23 87 -27 115 -7 15 12 23 12 47 -1
20 -10 51 -13 100 -10 64 3 73 7 99 36 31 34 38 77 18 113 -6 11 -43 36 -84
56 -41 19 -76 42 -79 50 -16 40 45 74 97 54 22 -9 27 -17 27 -46 0 -31 3 -35
25 -35 49 0 54 83 7 120 -18 15 -40 20 -87 20 -78 0 -126 -28 -139 -81 -14
-57 7 -88 88 -129 78 -39 97 -60 77 -84 -17 -21 -70 -30 -103 -17 -20 8 -27
18 -30 43 -2 26 -8 34 -27 36 -26 4 -41 -12 -41 -45 0 -13 -8 -24 -20 -28 -43
-14 -50 17 -25 120 20 80 19 149 -1 169 -26 27 -88 20 -121 -13 l-29 -29 -17
29 c-14 25 -22 29 -57 29 -33 0 -48 -6 -71 -30 -23 -22 -31 -26 -34 -15 -3 8
-7 22 -10 30 -3 10 -18 15 -44 15 -31 0 -49 -7 -76 -31 -19 -17 -35 -26 -35
-20 0 6 -15 20 -32 31 -46 28 -122 27 -179 -3z m116 -39 c49 -22 45 -97 -6
-123 l-30 -16 3 58 c3 52 1 58 -18 61 -28 4 -43 -17 -52 -69 -6 -35 -12 -45
-30 -47 -26 -4 -30 -37 -6 -50 14 -8 15 -18 10 -56 -4 -25 -12 -46 -17 -46
-18 0 -31 55 -26 112 7 85 40 146 91 169 49 22 48 22 81 7z"/>
</g>
</svg>
